<svg width="2633" height="395" viewBox="0 0 2633 395" fill="none" xmlns="http://www.w3.org/2000/svg">
<path d="M1545.07 78.6576V316H1530.58V78.6576H1545.07ZM1669.85 319.708C1655.56 319.708 1643.08 315.768 1632.42 307.888C1621.76 300.007 1613.49 289.152 1607.62 275.323C1601.82 261.416 1598.92 245.462 1598.92 227.46C1598.92 209.613 1601.86 193.775 1607.73 179.945C1613.68 166.039 1621.99 155.145 1632.65 147.264C1643.31 139.307 1655.75 135.328 1669.97 135.328C1680.16 135.328 1689.01 137.298 1696.5 141.238C1704.08 145.101 1710.41 150.239 1715.51 156.651C1720.69 163.064 1724.63 170.095 1727.33 177.743H1728.72V78.6576H1742.74V316H1729.07V277.177H1727.33C1724.47 284.826 1720.49 291.895 1715.39 298.385C1710.29 304.797 1703.96 309.974 1696.39 313.914C1688.82 317.777 1679.97 319.708 1669.85 319.708ZM1671.12 306.613C1683.18 306.613 1693.49 303.175 1702.07 296.299C1710.72 289.345 1717.33 279.92 1721.88 268.022C1726.52 256.046 1728.84 242.487 1728.84 227.344C1728.84 212.201 1726.52 198.719 1721.88 186.899C1717.33 175.001 1710.72 165.652 1702.07 158.853C1693.49 151.977 1683.18 148.539 1671.12 148.539C1658.92 148.539 1648.45 152.016 1639.72 158.969C1631.06 165.845 1624.42 175.232 1619.78 187.13C1615.23 199.029 1612.95 212.433 1612.95 227.344C1612.95 242.255 1615.23 255.699 1619.78 267.674C1624.42 279.649 1631.06 289.152 1639.72 296.183C1648.45 303.136 1658.92 306.613 1671.12 306.613ZM1875.79 319.708C1859.72 319.708 1845.73 315.73 1833.83 307.772C1821.94 299.814 1812.74 288.92 1806.25 275.091C1799.76 261.261 1796.52 245.5 1796.52 227.808C1796.52 210.038 1799.76 194.2 1806.25 180.293C1812.82 166.386 1821.82 155.415 1833.25 147.38C1844.69 139.345 1857.75 135.328 1872.42 135.328C1882.39 135.328 1891.82 137.336 1900.7 141.354C1909.66 145.294 1917.54 151.011 1924.34 158.506C1931.22 166 1936.59 175.039 1940.45 185.624C1944.39 196.209 1946.36 208.107 1946.36 221.318V230.126H1805.44V217.262H1932.22C1932.22 204.359 1929.6 192.732 1924.34 182.379C1919.09 172.026 1911.94 163.798 1902.9 157.694C1893.86 151.591 1883.7 148.539 1872.42 148.539C1860.6 148.539 1850.06 151.861 1840.79 158.506C1831.59 165.073 1824.29 173.958 1818.88 185.16C1813.55 196.363 1810.77 208.879 1810.54 222.709V228.503C1810.54 243.337 1813.13 256.664 1818.3 268.485C1823.56 280.229 1831.05 289.538 1840.79 296.415C1850.52 303.213 1862.19 306.613 1875.79 306.613C1885.52 306.613 1893.83 304.99 1900.7 301.746C1907.66 298.423 1913.33 294.406 1917.74 289.693C1922.14 284.98 1925.46 280.422 1927.7 276.018L1940.57 281.233C1937.86 287.182 1933.65 293.131 1927.94 299.08C1922.3 304.952 1915.11 309.858 1906.38 313.798C1897.73 317.738 1887.53 319.708 1875.79 319.708ZM2009.17 200.574V316H1995.04V137.993H2008.83V166.154H2010.22C2014.39 156.96 2021.07 149.582 2030.27 144.019C2039.46 138.457 2050.39 135.675 2063.06 135.675C2075.04 135.675 2085.55 138.225 2094.59 143.324C2103.7 148.423 2110.81 155.686 2115.91 165.111C2121.09 174.46 2123.67 185.624 2123.67 198.604V316H2109.54V199.183C2109.54 184.04 2105.02 171.872 2095.98 162.678C2087.01 153.407 2075.15 148.771 2060.4 148.771C2050.51 148.771 2041.7 150.934 2033.98 155.261C2026.25 159.587 2020.18 165.652 2015.78 173.455C2011.38 181.181 2009.17 190.221 2009.17 200.574ZM2245.36 137.993V150.625H2167.6V137.993H2245.36ZM2193.9 95.3457H2207.93V273.932C2207.93 281.194 2209.32 287.143 2212.1 291.779C2214.96 296.337 2218.67 299.737 2223.22 301.977C2227.86 304.141 2232.8 305.222 2238.06 305.222C2240.61 305.222 2242.81 305.029 2244.66 304.643C2246.59 304.256 2248.41 303.754 2250.11 303.136L2253.59 316C2251.42 316.773 2249.03 317.429 2246.4 317.97C2243.77 318.588 2240.68 318.897 2237.13 318.897C2229.71 318.897 2222.68 317.236 2216.04 313.914C2209.47 310.592 2204.14 305.763 2200.05 299.428C2195.95 293.092 2193.9 285.444 2193.9 276.482V95.3457ZM2298.49 316V137.993H2312.52V316H2298.49ZM2305.56 106.471C2302.47 106.471 2299.77 105.39 2297.45 103.226C2295.21 101.063 2294.09 98.4361 2294.09 95.3457C2294.09 92.2553 2295.21 89.6285 2297.45 87.4652C2299.69 85.3019 2302.4 84.2203 2305.56 84.2203C2308.65 84.2203 2311.32 85.3019 2313.56 87.4652C2315.88 89.6285 2317.04 92.2553 2317.04 95.3457C2317.04 98.4361 2315.92 101.063 2313.68 103.226C2311.43 105.39 2308.73 106.471 2305.56 106.471ZM2434.66 137.993V150.625H2356.9V137.993H2434.66ZM2383.21 95.3457H2397.23V273.932C2397.23 281.194 2398.62 287.143 2401.4 291.779C2404.26 296.337 2407.97 299.737 2412.53 301.977C2417.17 304.141 2422.11 305.222 2427.36 305.222C2429.91 305.222 2432.11 305.029 2433.97 304.643C2435.9 304.256 2437.72 303.754 2439.42 303.136L2442.89 316C2440.73 316.773 2438.33 317.429 2435.71 317.97C2433.08 318.588 2429.99 318.897 2426.44 318.897C2419.02 318.897 2411.99 317.236 2405.34 313.914C2398.78 310.592 2393.45 305.763 2389.35 299.428C2385.26 293.092 2383.21 285.444 2383.21 276.482V95.3457ZM2498.46 382.753C2494.91 382.753 2491.39 382.366 2487.92 381.594C2484.44 380.821 2481.31 379.817 2478.53 378.581L2482.7 366.18C2489.96 368.962 2496.53 369.966 2502.4 369.193C2508.35 368.421 2513.6 365.717 2518.16 361.081C2522.72 356.446 2526.58 349.647 2529.75 340.685L2537.86 318.434L2472.62 137.993H2487.8L2544.35 297.805H2545.51L2602.07 137.993H2617.25L2542.15 346.247C2539.29 354.282 2535.7 361.004 2531.37 366.412C2527.05 371.82 2522.1 375.876 2516.54 378.581C2511.06 381.362 2505.03 382.753 2498.46 382.753Z" fill="black"/>
<path d="M377.977 326.892V145.092L508.873 326.892H555.777V76.1332H512.509V257.808L380.522 76.1332H334.345V326.892H377.977Z" fill="#021205"/>
<path d="M852.33 136.002H853.421V326.892H897.053V76.1332H832.695L759.612 277.442L685.438 76.1332H620.353V326.892H663.985V136.002L734.887 327.255H782.519L852.33 136.002Z" fill="#021205"/>
<path d="M961.754 76.1332V326.892H1005.75V250.899L1043.2 210.54L1117.01 326.892H1169.37L1073.74 175.634L1159.55 76.1332H1103.92L1039.56 153.818L1005.75 196.359V76.1332H961.754Z" fill="#021205"/>
<path d="M1397.92 151.637C1397.92 94.915 1361.2 76.0078 1309.93 76.0078L1202.67 76.1332V326.892H1246.66V227.993H1303.38L1352.11 326.892H1400.47V324.347L1347.74 222.539C1376.47 214.176 1397.92 191.633 1397.92 151.637ZM1246.66 113.095H1309.93C1337.2 113.095 1353.2 126.548 1353.2 152C1353.2 177.452 1336.47 190.905 1309.93 190.905H1246.66V113.095Z" fill="#021205"/>
<path d="M0 180.491L0 76.0078H229.862V180.491H188.069V211.835L125.379 180.491V211.835L62.6897 180.491V211.835L0 180.491Z" fill="#021205"/>
<path d="M0 284.973V326.766H229.862V284.973H0Z" fill="#021205"/>
</svg>
